<svg xmlns="http://www.w3.org/2000/svg" xmlns:xlink="http://www.w3.org/1999/xlink" width="160" zoomAndPan="magnify" viewBox="0 0 120 120.749998" height="160" preserveAspectRatio="xMidYMid meet" version="1.0"><defs><clipPath id="d4c6238f50"><path d="M 8.058594 39.214844 L 33.132812 39.214844 L 33.132812 45.722656 L 8.058594 45.722656 Z M 8.058594 39.214844 " clip-rule="nonzero"/></clipPath><clipPath id="688521f8d9"><path d="M 8.058594 40.710938 L 8.058594 44.226562 C 8.058594 44.625 8.214844 45.003906 8.496094 45.285156 C 8.777344 45.566406 9.15625 45.722656 9.554688 45.722656 L 31.632812 45.722656 C 32.03125 45.722656 32.410156 45.566406 32.691406 45.285156 C 32.972656 45.003906 33.128906 44.625 33.128906 44.226562 L 33.128906 40.710938 C 33.128906 40.3125 32.972656 39.933594 32.691406 39.652344 C 32.410156 39.371094 32.03125 39.214844 31.632812 39.214844 L 9.554688 39.214844 C 9.15625 39.214844 8.777344 39.371094 8.496094 39.652344 C 8.214844 39.933594 8.058594 40.3125 8.058594 40.710938 Z M 8.058594 40.710938 " clip-rule="nonzero"/></clipPath><clipPath id="7638b0c97e"><path d="M 0.0585938 0.214844 L 25.132812 0.214844 L 25.132812 6.722656 L 0.0585938 6.722656 Z M 0.0585938 0.214844 " clip-rule="nonzero"/></clipPath><clipPath id="2976032199"><path d="M 0.0585938 1.710938 L 0.0585938 5.226562 C 0.0585938 5.625 0.214844 6.003906 0.496094 6.285156 C 0.777344 6.566406 1.15625 6.722656 1.554688 6.722656 L 23.632812 6.722656 C 24.03125 6.722656 24.410156 6.566406 24.691406 6.285156 C 24.972656 6.003906 25.128906 5.625 25.128906 5.226562 L 25.128906 1.710938 C 25.128906 1.3125 24.972656 0.933594 24.691406 0.652344 C 24.410156 0.371094 24.03125 0.214844 23.632812 0.214844 L 1.554688 0.214844 C 1.15625 0.214844 0.777344 0.371094 0.496094 0.652344 C 0.214844 0.933594 0.0585938 1.3125 0.0585938 1.710938 Z M 0.0585938 1.710938 " clip-rule="nonzero"/></clipPath><clipPath id="9048517d36"><rect x="0" width="26" y="0" height="7"/></clipPath><clipPath id="c383cd55e6"><path d="M 22.851562 49.992188 L 31.398438 49.992188 L 31.398438 56.058594 L 22.851562 56.058594 Z M 22.851562 49.992188 " clip-rule="nonzero"/></clipPath><clipPath id="91376d2a55"><path d="M 31.390625 52.929688 L 31.390625 53.097656 C 31.390625 54.71875 30.074219 56.035156 28.453125 56.035156 L 25.789062 56.035156 C 24.167969 56.035156 22.851562 54.71875 22.851562 53.097656 L 22.851562 52.929688 C 22.851562 51.304688 24.167969 49.992188 25.789062 49.992188 L 28.453125 49.992188 C 30.074219 49.992188 31.390625 51.304688 31.390625 52.929688 Z M 31.390625 52.929688 " clip-rule="nonzero"/></clipPath><clipPath id="63cf4a4aab"><path d="M 0.851562 0.992188 L 9.398438 0.992188 L 9.398438 7.042969 L 0.851562 7.042969 Z M 0.851562 0.992188 " clip-rule="nonzero"/></clipPath><clipPath id="a8bb22d510"><path d="M 9.390625 3.929688 L 9.390625 4.097656 C 9.390625 5.71875 8.074219 7.035156 6.453125 7.035156 L 3.789062 7.035156 C 2.167969 7.035156 0.851562 5.71875 0.851562 4.097656 L 0.851562 3.929688 C 0.851562 2.304688 2.167969 0.992188 3.789062 0.992188 L 6.453125 0.992188 C 8.074219 0.992188 9.390625 2.304688 9.390625 3.929688 Z M 9.390625 3.929688 " clip-rule="nonzero"/></clipPath><clipPath id="d0a89c3795"><rect x="0" width="10" y="0" height="8"/></clipPath><clipPath id="755f37929e"><path d="M 45.46875 33.222656 L 52.617188 33.222656 L 52.617188 61.816406 L 45.46875 61.816406 Z M 45.46875 33.222656 " clip-rule="nonzero"/></clipPath><clipPath id="4814a85cbc"><path d="M 45.496094 34.683594 L 45.496094 60.34375 C 45.496094 61.152344 46.148438 61.804688 46.957031 61.804688 L 51.128906 61.804688 C 51.933594 61.804688 52.589844 61.152344 52.589844 60.34375 L 52.589844 34.683594 C 52.589844 33.875 51.933594 33.222656 51.128906 33.222656 L 46.957031 33.222656 C 46.148438 33.222656 45.496094 33.875 45.496094 34.683594 Z M 45.496094 34.683594 " clip-rule="nonzero"/></clipPath><clipPath id="705ff1d19d"><path d="M 0.46875 0.222656 L 7.617188 0.222656 L 7.617188 28.816406 L 0.46875 28.816406 Z M 0.46875 0.222656 " clip-rule="nonzero"/></clipPath><clipPath id="5bd7a88445"><path d="M 0.496094 1.683594 L 0.496094 27.34375 C 0.496094 28.152344 1.148438 28.804688 1.957031 28.804688 L 6.128906 28.804688 C 6.933594 28.804688 7.589844 28.152344 7.589844 27.34375 L 7.589844 1.683594 C 7.589844 0.875 6.933594 0.222656 6.128906 0.222656 L 1.957031 0.222656 C 1.148438 0.222656 0.496094 0.875 0.496094 1.683594 Z M 0.496094 1.683594 " clip-rule="nonzero"/></clipPath><clipPath id="2fa60eca03"><rect x="0" width="8" y="0" height="29"/></clipPath><clipPath id="8e995d25a9"><path d="M 43.261719 64.003906 L 49.839844 64.003906 L 49.839844 86.460938 L 43.261719 86.460938 Z M 43.261719 64.003906 " clip-rule="nonzero"/></clipPath><clipPath id="372c872c17"><path d="M 43.289062 65.5 L 43.289062 84.964844 C 43.289062 85.359375 43.445312 85.742188 43.726562 86.023438 C 44.007812 86.300781 44.386719 86.460938 44.785156 86.460938 L 48.316406 86.460938 C 48.714844 86.460938 49.09375 86.300781 49.375 86.023438 C 49.65625 85.742188 49.8125 85.359375 49.8125 84.964844 L 49.8125 65.5 C 49.8125 65.105469 49.65625 64.722656 49.375 64.445312 C 49.09375 64.164062 48.714844 64.003906 48.316406 64.003906 L 44.785156 64.003906 C 44.386719 64.003906 44.007812 64.164062 43.726562 64.445312 C 43.445312 64.722656 43.289062 65.105469 43.289062 65.5 Z M 43.289062 65.5 " clip-rule="nonzero"/></clipPath><clipPath id="15a64d3289"><path d="M 0.261719 0.00390625 L 6.839844 0.00390625 L 6.839844 22.460938 L 0.261719 22.460938 Z M 0.261719 0.00390625 " clip-rule="nonzero"/></clipPath><clipPath id="bf069fe3a2"><path d="M 0.289062 1.5 L 0.289062 20.964844 C 0.289062 21.359375 0.445312 21.742188 0.726562 22.023438 C 1.007812 22.300781 1.386719 22.460938 1.785156 22.460938 L 5.316406 22.460938 C 5.714844 22.460938 6.09375 22.300781 6.375 22.023438 C 6.65625 21.742188 6.8125 21.359375 6.8125 20.964844 L 6.8125 1.5 C 6.8125 1.105469 6.65625 0.722656 6.375 0.445312 C 6.09375 0.164062 5.714844 0.00390625 5.316406 0.00390625 L 1.785156 0.00390625 C 1.386719 0.00390625 1.007812 0.164062 0.726562 0.445312 C 0.445312 0.722656 0.289062 1.105469 0.289062 1.5 Z M 0.289062 1.5 " clip-rule="nonzero"/></clipPath><clipPath id="5635e36144"><rect x="0" width="7" y="0" height="23"/></clipPath><clipPath id="1ba31bb58f"><path d="M 54.546875 61.132812 L 60.886719 61.132812 L 60.886719 86.460938 L 54.546875 86.460938 Z M 54.546875 61.132812 " clip-rule="nonzero"/></clipPath><clipPath id="8f4f0a159a"><path d="M 0.546875 0.132812 L 6.886719 0.132812 L 6.886719 25.460938 L 0.546875 25.460938 Z M 0.546875 0.132812 " clip-rule="nonzero"/></clipPath><clipPath id="865ad1e0db"><rect x="0" width="7" y="0" height="26"/></clipPath><clipPath id="8612154dc7"><path d="M 48.1875 80.261719 L 58.371094 80.261719 L 58.371094 86.453125 L 48.1875 86.453125 Z M 48.1875 80.261719 " clip-rule="nonzero"/></clipPath><clipPath id="641daa491e"><path d="M 0.1875 0.261719 L 10.371094 0.261719 L 10.371094 6.453125 L 0.1875 6.453125 Z M 0.1875 0.261719 " clip-rule="nonzero"/></clipPath><clipPath id="3a74ac78d7"><rect x="0" width="11" y="0" height="7"/></clipPath><clipPath id="09d11c3757"><path d="M 46.550781 64.003906 L 57.257812 64.003906 L 57.257812 69.8125 L 46.550781 69.8125 Z M 46.550781 64.003906 " clip-rule="nonzero"/></clipPath><clipPath id="793051df3b"><path d="M 0.550781 0.00390625 L 11.257812 0.00390625 L 11.257812 5.8125 L 0.550781 5.8125 Z M 0.550781 0.00390625 " clip-rule="nonzero"/></clipPath><clipPath id="ca2ae8f39f"><rect x="0" width="12" y="0" height="6"/></clipPath><clipPath id="8ff926ac1b"><path d="M 54.546875 37.96875 L 60.910156 37.96875 L 60.910156 63.054688 L 54.546875 63.054688 Z M 54.546875 37.96875 " clip-rule="nonzero"/></clipPath><clipPath id="2289dd4f9a"><path d="M 54.546875 39.421875 L 54.546875 61.582031 C 54.546875 61.964844 54.699219 62.335938 54.972656 62.609375 C 55.246094 62.882812 55.613281 63.035156 56 63.035156 L 59.433594 63.035156 C 59.816406 63.035156 60.1875 62.882812 60.460938 62.609375 C 60.734375 62.335938 60.886719 61.964844 60.886719 61.582031 L 60.886719 39.421875 C 60.886719 39.035156 60.734375 38.667969 60.460938 38.394531 C 60.1875 38.121094 59.816406 37.96875 59.433594 37.96875 L 56 37.96875 C 55.613281 37.96875 55.246094 38.121094 54.972656 38.394531 C 54.699219 38.667969 54.546875 39.035156 54.546875 39.421875 Z M 54.546875 39.421875 " clip-rule="nonzero"/></clipPath><clipPath id="251edbda13"><path d="M 0.546875 0.96875 L 6.910156 0.96875 L 6.910156 26.054688 L 0.546875 26.054688 Z M 0.546875 0.96875 " clip-rule="nonzero"/></clipPath><clipPath id="996570dc4d"><path d="M 0.546875 2.421875 L 0.546875 24.582031 C 0.546875 24.964844 0.699219 25.335938 0.972656 25.609375 C 1.246094 25.882812 1.613281 26.035156 2 26.035156 L 5.433594 26.035156 C 5.816406 26.035156 6.1875 25.882812 6.460938 25.609375 C 6.734375 25.335938 6.886719 24.964844 6.886719 24.582031 L 6.886719 2.421875 C 6.886719 2.035156 6.734375 1.667969 6.460938 1.394531 C 6.1875 1.121094 5.816406 0.96875 5.433594 0.96875 L 2 0.96875 C 1.613281 0.96875 1.246094 1.121094 0.972656 1.394531 C 0.699219 1.667969 0.546875 2.035156 0.546875 2.421875 Z M 0.546875 2.421875 " clip-rule="nonzero"/></clipPath><clipPath id="49a0c936e1"><rect x="0" width="7" y="0" height="27"/></clipPath><clipPath id="16f32a918c"><path d="M 83.898438 56.605469 L 90.578125 56.605469 L 90.578125 82.359375 L 83.898438 82.359375 Z M 83.898438 56.605469 " clip-rule="nonzero"/></clipPath><clipPath id="2c82ffcd97"><path d="M 83.902344 58.074219 L 83.902344 80.894531 C 83.902344 81.691406 84.546875 82.339844 85.347656 82.339844 L 89.109375 82.339844 C 89.90625 82.339844 90.554688 81.691406 90.554688 80.894531 L 90.554688 58.074219 C 90.554688 57.277344 89.90625 56.628906 89.109375 56.628906 L 85.347656 56.628906 C 84.546875 56.628906 83.902344 57.277344 83.902344 58.074219 Z M 83.902344 58.074219 " clip-rule="nonzero"/></clipPath><clipPath id="e63774c983"><path d="M 0.898438 0.605469 L 7.578125 0.605469 L 7.578125 26.359375 L 0.898438 26.359375 Z M 0.898438 0.605469 " clip-rule="nonzero"/></clipPath><clipPath id="53e463d126"><path d="M 0.902344 2.074219 L 0.902344 24.894531 C 0.902344 25.691406 1.546875 26.339844 2.347656 26.339844 L 6.109375 26.339844 C 6.90625 26.339844 7.554688 25.691406 7.554688 24.894531 L 7.554688 2.074219 C 7.554688 1.277344 6.90625 0.628906 6.109375 0.628906 L 2.347656 0.628906 C 1.546875 0.628906 0.902344 1.277344 0.902344 2.074219 Z M 0.902344 2.074219 " clip-rule="nonzero"/></clipPath><clipPath id="2461db2fd1"><rect x="0" width="8" y="0" height="27"/></clipPath><clipPath id="aee3a89d9e"><path d="M 84.539062 58.222656 L 102.058594 58.222656 L 102.058594 63.945312 L 84.539062 63.945312 Z M 84.539062 58.222656 " clip-rule="nonzero"/></clipPath><clipPath id="6990e68ce4"><path d="M 84.539062 59.71875 L 84.539062 62.445312 C 84.539062 63.273438 85.207031 63.945312 86.035156 63.945312 L 100.542969 63.945312 C 101.367188 63.945312 102.039062 63.273438 102.039062 62.445312 L 102.039062 59.71875 C 102.039062 58.894531 101.367188 58.222656 100.542969 58.222656 L 86.035156 58.222656 C 85.207031 58.222656 84.539062 58.894531 84.539062 59.71875 Z M 84.539062 59.71875 " clip-rule="nonzero"/></clipPath><clipPath id="649e6486a8"><path d="M 0.539062 0.222656 L 18.058594 0.222656 L 18.058594 5.945312 L 0.539062 5.945312 Z M 0.539062 0.222656 " clip-rule="nonzero"/></clipPath><clipPath id="43f9c4b3d9"><path d="M 0.539062 1.71875 L 0.539062 4.445312 C 0.539062 5.273438 1.207031 5.945312 2.035156 5.945312 L 16.542969 5.945312 C 17.367188 5.945312 18.039062 5.273438 18.039062 4.445312 L 18.039062 1.71875 C 18.039062 0.894531 17.367188 0.222656 16.542969 0.222656 L 2.035156 0.222656 C 1.207031 0.222656 0.539062 0.894531 0.539062 1.71875 Z M 0.539062 1.71875 " clip-rule="nonzero"/></clipPath><clipPath id="f34d2e952d"><rect x="0" width="19" y="0" height="6"/></clipPath><clipPath id="d1bdfb9310"><path d="M 63.277344 58.222656 L 69.882812 58.222656 L 69.882812 81.953125 L 63.277344 81.953125 Z M 63.277344 58.222656 " clip-rule="nonzero"/></clipPath><clipPath id="b7ab8cb7e9"><path d="M 0.277344 0.222656 L 6.882812 0.222656 L 6.882812 23.953125 L 0.277344 23.953125 Z M 0.277344 0.222656 " clip-rule="nonzero"/></clipPath><clipPath id="2d12344e5b"><rect x="0" width="7" y="0" height="24"/></clipPath><clipPath id="87996ae07a"><path d="M 75.273438 58.222656 L 81.6875 58.222656 L 81.6875 81.953125 L 75.273438 81.953125 Z M 75.273438 58.222656 " clip-rule="nonzero"/></clipPath><clipPath id="f71568e5ae"><path d="M 75.273438 59.691406 L 75.273438 80.480469 C 75.273438 81.292969 75.929688 81.953125 76.742188 81.953125 L 80.21875 81.953125 C 81.03125 81.953125 81.6875 81.292969 81.6875 80.480469 L 81.6875 59.691406 C 81.6875 58.878906 81.03125 58.222656 80.21875 58.222656 L 76.742188 58.222656 C 75.929688 58.222656 75.273438 58.878906 75.273438 59.691406 Z M 75.273438 59.691406 " clip-rule="nonzero"/></clipPath><clipPath id="67a07a7dd7"><path d="M 0.273438 0.222656 L 6.6875 0.222656 L 6.6875 23.953125 L 0.273438 23.953125 Z M 0.273438 0.222656 " clip-rule="nonzero"/></clipPath><clipPath id="ae9d50459e"><path d="M 0.273438 1.691406 L 0.273438 22.480469 C 0.273438 23.292969 0.929688 23.953125 1.742188 23.953125 L 5.21875 23.953125 C 6.03125 23.953125 6.6875 23.292969 6.6875 22.480469 L 6.6875 1.691406 C 6.6875 0.878906 6.03125 0.222656 5.21875 0.222656 L 1.742188 0.222656 C 0.929688 0.222656 0.273438 0.878906 0.273438 1.691406 Z M 0.273438 1.691406 " clip-rule="nonzero"/></clipPath><clipPath id="7bbab09a20"><rect x="0" width="7" y="0" height="24"/></clipPath><clipPath id="354c22d722"><path d="M 66.890625 58.222656 L 77.898438 58.222656 L 77.898438 64.460938 L 66.890625 64.460938 Z M 66.890625 58.222656 " clip-rule="nonzero"/></clipPath><clipPath id="6a03f4f996"><path d="M 0.890625 0.222656 L 11.898438 0.222656 L 11.898438 6.460938 L 0.890625 6.460938 Z M 0.890625 0.222656 " clip-rule="nonzero"/></clipPath><clipPath id="ba8f919f3a"><rect x="0" width="12" y="0" height="7"/></clipPath><clipPath id="e549360779"><path d="M 93.261719 65.949219 L 99.640625 65.949219 L 99.640625 86.261719 L 93.261719 86.261719 Z M 93.261719 65.949219 " clip-rule="nonzero"/></clipPath><clipPath id="2652aee49f"><path d="M 93.289062 67.402344 L 93.289062 84.804688 C 93.289062 85.609375 93.9375 86.257812 94.742188 86.257812 L 98.160156 86.257812 C 98.964844 86.257812 99.613281 85.609375 99.613281 84.804688 L 99.613281 67.402344 C 99.613281 66.601562 98.964844 65.949219 98.160156 65.949219 L 94.742188 65.949219 C 93.9375 65.949219 93.289062 66.601562 93.289062 67.402344 Z M 93.289062 67.402344 " clip-rule="nonzero"/></clipPath><clipPath id="5af61b18a2"><path d="M 0.261719 0.949219 L 6.640625 0.949219 L 6.640625 21.261719 L 0.261719 21.261719 Z M 0.261719 0.949219 " clip-rule="nonzero"/></clipPath><clipPath id="53c9da8589"><path d="M 0.289062 2.402344 L 0.289062 19.804688 C 0.289062 20.609375 0.9375 21.257812 1.742188 21.257812 L 5.160156 21.257812 C 5.964844 21.257812 6.613281 20.609375 6.613281 19.804688 L 6.613281 2.402344 C 6.613281 1.601562 5.964844 0.949219 5.160156 0.949219 L 1.742188 0.949219 C 0.9375 0.949219 0.289062 1.601562 0.289062 2.402344 Z M 0.289062 2.402344 " clip-rule="nonzero"/></clipPath><clipPath id="ab70859016"><rect x="0" width="7" y="0" height="22"/></clipPath><clipPath id="c430b4a6e4"><path d="M 105.171875 63.191406 L 111.941406 63.191406 L 111.941406 86.25 L 105.171875 86.25 Z M 105.171875 63.191406 " clip-rule="nonzero"/></clipPath><clipPath id="99c0f6055d"><path d="M 105.171875 63.941406 L 105.171875 85.484375 C 105.171875 85.679688 105.25 85.871094 105.390625 86.011719 C 105.53125 86.152344 105.722656 86.230469 105.921875 86.230469 L 111.191406 86.230469 C 111.390625 86.230469 111.582031 86.152344 111.722656 86.011719 C 111.863281 85.871094 111.941406 85.679688 111.941406 85.484375 L 111.941406 63.941406 C 111.941406 63.742188 111.863281 63.550781 111.722656 63.410156 C 111.582031 63.273438 111.390625 63.191406 111.191406 63.191406 L 105.921875 63.191406 C 105.722656 63.191406 105.53125 63.273438 105.390625 63.410156 C 105.25 63.550781 105.171875 63.742188 105.171875 63.941406 Z M 105.171875 63.941406 " clip-rule="nonzero"/></clipPath><clipPath id="bbee12aea1"><path d="M 0.171875 0.191406 L 6.941406 0.191406 L 6.941406 23.25 L 0.171875 23.25 Z M 0.171875 0.191406 " clip-rule="nonzero"/></clipPath><clipPath id="cf6c6f3aee"><path d="M 0.171875 0.941406 L 0.171875 22.484375 C 0.171875 22.679688 0.25 22.871094 0.390625 23.011719 C 0.53125 23.152344 0.722656 23.230469 0.921875 23.230469 L 6.191406 23.230469 C 6.390625 23.230469 6.582031 23.152344 6.722656 23.011719 C 6.863281 22.871094 6.941406 22.679688 6.941406 22.484375 L 6.941406 0.941406 C 6.941406 0.742188 6.863281 0.550781 6.722656 0.410156 C 6.582031 0.273438 6.390625 0.191406 6.191406 0.191406 L 0.921875 0.191406 C 0.722656 0.191406 0.53125 0.273438 0.390625 0.410156 C 0.25 0.550781 0.171875 0.742188 0.171875 0.941406 Z M 0.171875 0.941406 " clip-rule="nonzero"/></clipPath><clipPath id="25184d03fc"><rect x="0" width="7" y="0" height="24"/></clipPath><clipPath id="15bf7ef621"><path d="M 96.007812 80.085938 L 107.96875 80.085938 L 107.96875 86.285156 L 96.007812 86.285156 Z M 96.007812 80.085938 " clip-rule="nonzero"/></clipPath><clipPath id="7463704766"><path d="M 96.035156 81.566406 L 96.035156 84.78125 C 96.035156 85.171875 96.1875 85.546875 96.464844 85.824219 C 96.742188 86.105469 97.121094 86.257812 97.511719 86.257812 L 106.476562 86.257812 C 106.871094 86.257812 107.246094 86.105469 107.523438 85.824219 C 107.800781 85.546875 107.957031 85.171875 107.957031 84.78125 L 107.957031 81.566406 C 107.957031 81.171875 107.800781 80.796875 107.523438 80.519531 C 107.246094 80.242188 106.871094 80.085938 106.476562 80.085938 L 97.511719 80.085938 C 97.121094 80.085938 96.742188 80.242188 96.464844 80.519531 C 96.1875 80.796875 96.035156 81.171875 96.035156 81.566406 Z M 96.035156 81.566406 " clip-rule="nonzero"/></clipPath><clipPath id="1430b5e518"><path d="M 0.0078125 0.0859375 L 11.96875 0.0859375 L 11.96875 6.285156 L 0.0078125 6.285156 Z M 0.0078125 0.0859375 " clip-rule="nonzero"/></clipPath><clipPath id="b24d276614"><path d="M 0.0351562 1.566406 L 0.0351562 4.78125 C 0.0351562 5.171875 0.1875 5.546875 0.464844 5.824219 C 0.742188 6.105469 1.121094 6.257812 1.511719 6.257812 L 10.476562 6.257812 C 10.871094 6.257812 11.246094 6.105469 11.523438 5.824219 C 11.800781 5.546875 11.957031 5.171875 11.957031 4.78125 L 11.957031 1.566406 C 11.957031 1.171875 11.800781 0.796875 11.523438 0.519531 C 11.246094 0.242188 10.871094 0.0859375 10.476562 0.0859375 L 1.511719 0.0859375 C 1.121094 0.0859375 0.742188 0.242188 0.464844 0.519531 C 0.1875 0.796875 0.0351562 1.171875 0.0351562 1.566406 Z M 0.0351562 1.566406 " clip-rule="nonzero"/></clipPath><clipPath id="a9275ac620"><rect x="0" width="12" y="0" height="7"/></clipPath><clipPath id="b928483710"><path d="M 95.722656 65.957031 L 107.160156 65.957031 L 107.160156 71.242188 L 95.722656 71.242188 Z M 95.722656 65.957031 " clip-rule="nonzero"/></clipPath><clipPath id="0fffe2867d"><path d="M 107.140625 67.4375 L 107.140625 69.746094 C 107.140625 70.5625 106.476562 71.222656 105.660156 71.222656 L 97.222656 71.222656 C 96.40625 71.222656 95.746094 70.5625 95.746094 69.746094 L 95.746094 67.4375 C 95.746094 66.621094 96.40625 65.957031 97.222656 65.957031 L 105.660156 65.957031 C 106.476562 65.957031 107.140625 66.621094 107.140625 67.4375 Z M 107.140625 67.4375 " clip-rule="nonzero"/></clipPath><clipPath id="b3b38e7609"><path d="M 0.722656 0.957031 L 12.160156 0.957031 L 12.160156 6.242188 L 0.722656 6.242188 Z M 0.722656 0.957031 " clip-rule="nonzero"/></clipPath><clipPath id="c865e9e0c7"><path d="M 12.140625 2.4375 L 12.140625 4.746094 C 12.140625 5.5625 11.476562 6.222656 10.660156 6.222656 L 2.222656 6.222656 C 1.40625 6.222656 0.746094 5.5625 0.746094 4.746094 L 0.746094 2.4375 C 0.746094 1.621094 1.40625 0.957031 2.222656 0.957031 L 10.660156 0.957031 C 11.476562 0.957031 12.140625 1.621094 12.140625 2.4375 Z M 12.140625 2.4375 " clip-rule="nonzero"/></clipPath><clipPath id="c6d08ee719"><rect x="0" width="13" y="0" height="7"/></clipPath><clipPath id="327fb44d95"><path d="M 105.171875 44.5 L 111.941406 44.5 L 111.941406 67.558594 L 105.171875 67.558594 Z M 105.171875 44.5 " clip-rule="nonzero"/></clipPath><clipPath id="182588feb4"><path d="M 105.171875 45.996094 L 105.171875 66.042969 C 105.171875 66.4375 105.332031 66.820312 105.609375 67.101562 C 105.890625 67.382812 106.273438 67.539062 106.667969 67.539062 L 110.445312 67.539062 C 110.839844 67.539062 111.222656 67.382812 111.503906 67.101562 C 111.785156 66.820312 111.941406 66.4375 111.941406 66.042969 L 111.941406 45.996094 C 111.941406 45.601562 111.785156 45.21875 111.503906 44.9375 C 111.222656 44.65625 110.839844 44.5 110.445312 44.5 L 106.667969 44.5 C 106.273438 44.5 105.890625 44.65625 105.609375 44.9375 C 105.332031 45.21875 105.171875 45.601562 105.171875 45.996094 Z M 105.171875 45.996094 " clip-rule="nonzero"/></clipPath><clipPath id="9aa71f5d5f"><path d="M 0.171875 0.5 L 6.941406 0.5 L 6.941406 23.539062 L 0.171875 23.539062 Z M 0.171875 0.5 " clip-rule="nonzero"/></clipPath><clipPath id="c44fe63c8b"><path d="M 0.171875 1.996094 L 0.171875 22.042969 C 0.171875 22.4375 0.332031 22.820312 0.609375 23.101562 C 0.890625 23.382812 1.273438 23.539062 1.667969 23.539062 L 5.445312 23.539062 C 5.839844 23.539062 6.222656 23.382812 6.503906 23.101562 C 6.785156 22.820312 6.941406 22.4375 6.941406 22.042969 L 6.941406 1.996094 C 6.941406 1.601562 6.785156 1.21875 6.503906 0.9375 C 6.222656 0.65625 5.839844 0.5 5.445312 0.5 L 1.667969 0.5 C 1.273438 0.5 0.890625 0.65625 0.609375 0.9375 C 0.332031 1.21875 0.171875 1.601562 0.171875 1.996094 Z M 0.171875 1.996094 " clip-rule="nonzero"/></clipPath><clipPath id="b8db09649e"><rect x="0" width="7" y="0" height="24"/></clipPath><clipPath id="bb4ca5dc58"><path d="M 33.785156 46.285156 L 40.933594 46.285156 L 40.933594 74.878906 L 33.785156 74.878906 Z M 33.785156 46.285156 " clip-rule="nonzero"/></clipPath><clipPath id="354fe5cff6"><path d="M 33.8125 47.746094 L 33.8125 73.410156 C 33.8125 74.214844 34.464844 74.867188 35.273438 74.867188 L 39.445312 74.867188 C 40.25 74.867188 40.90625 74.214844 40.90625 73.410156 L 40.90625 47.746094 C 40.90625 46.941406 40.25 46.285156 39.445312 46.285156 L 35.273438 46.285156 C 34.464844 46.285156 33.8125 46.941406 33.8125 47.746094 Z M 33.8125 47.746094 " clip-rule="nonzero"/></clipPath><clipPath id="0e44302465"><path d="M 0.785156 0.285156 L 7.933594 0.285156 L 7.933594 28.878906 L 0.785156 28.878906 Z M 0.785156 0.285156 " clip-rule="nonzero"/></clipPath><clipPath id="04fd96a0f4"><path d="M 0.8125 1.746094 L 0.8125 27.410156 C 0.8125 28.214844 1.464844 28.867188 2.273438 28.867188 L 6.445312 28.867188 C 7.25 28.867188 7.90625 28.214844 7.90625 27.410156 L 7.90625 1.746094 C 7.90625 0.941406 7.25 0.285156 6.445312 0.285156 L 2.273438 0.285156 C 1.464844 0.285156 0.8125 0.941406 0.8125 1.746094 Z M 0.8125 1.746094 " clip-rule="nonzero"/></clipPath><clipPath id="560ee6b174"><rect x="0" width="8" y="0" height="29"/></clipPath><clipPath id="6ce932f17c"><path d="M 35 46 L 51 46 L 51 62 L 35 62 Z M 35 46 " clip-rule="nonzero"/></clipPath><clipPath id="568acb1fd6"><path d="M 35.371094 49.4375 L 39.632812 45.730469 L 50.789062 58.539062 L 46.527344 62.25 Z M 35.371094 49.4375 " clip-rule="nonzero"/></clipPath><clipPath id="ad609a91a5"><path d="M 36.5 48.453125 L 38.503906 46.710938 C 38.800781 46.453125 39.191406 46.320312 39.589844 46.347656 C 39.984375 46.558594 40.355469 46.558594 40.613281 46.859375 L 49.800781 57.40625 C 50.0625 57.707031 50.191406 58.097656 50.164062 58.492188 C 50.136719 58.890625 49.953125 59.257812 49.65625 59.519531 L 47.652344 61.261719 C 47.355469 61.523438 46.964844 61.652344 46.566406 61.625 C 46.171875 61.597656 45.804688 61.414062 45.542969 61.117188 L 36.355469 50.566406 C 36.09375 50.265625 35.964844 49.875 35.992188 49.480469 C 36.019531 49.085938 36.203125 48.714844 36.5 48.453125 Z M 36.5 48.453125 " clip-rule="nonzero"/></clipPath><clipPath id="1008bfd5b1"><path d="M 0.808594 0.222656 L 15.417969 0.222656 L 15.417969 15.792969 L 0.808594 15.792969 Z M 0.808594 0.222656 " clip-rule="nonzero"/></clipPath><clipPath id="1d3ccd6eed"><path d="M 0.371094 3.4375 L 4.632812 -0.269531 L 15.789062 12.539062 L 11.527344 16.25 Z M 0.371094 3.4375 " clip-rule="nonzero"/></clipPath><clipPath id="06806f8a71"><path d="M 1.5 2.453125 L 3.503906 0.710938 C 3.800781 0.453125 4.191406 0.320312 4.589844 0.347656 C 4.984375 0.375 5.355469 0.558594 5.613281 0.859375 L 14.800781 11.40625 C 15.0625 11.707031 15.191406 12.097656 15.164062 12.492188 C 15.136719 12.890625 14.953125 13.257812 14.65625 13.519531 L 12.652344 15.261719 C 12.355469 15.523438 11.964844 15.652344 11.566406 15.625 C 11.171875 15.597656 10.804688 15.414062 10.542969 15.117188 L 1.355469 4.566406 C 1.09375 4.265625 0.964844 3.875 0.992188 3.480469 C 1.019531 3.085938 1.203125 2.714844 1.5 2.453125 Z M 1.5 2.453125 " clip-rule="nonzero"/></clipPath><clipPath id="b9ca5cfa9e"><rect x="0" width="16" y="0" height="16"/></clipPath><clipPath id="046f9a9115"><path d="M 55.027344 61.136719 L 61.367188 61.136719 L 61.367188 86.464844 L 55.027344 86.464844 Z M 55.027344 61.136719 " clip-rule="nonzero"/></clipPath><clipPath id="be9b5d24c0"><path d="M 0.0273438 0.136719 L 6.367188 0.136719 L 6.367188 25.464844 L 0.0273438 25.464844 Z M 0.0273438 0.136719 " clip-rule="nonzero"/></clipPath><clipPath id="eb246f8995"><rect x="0" width="7" y="0" height="26"/></clipPath><clipPath id="09b251fa12"><path d="M 54.921875 37.96875 L 61.390625 37.96875 L 61.390625 63.453125 L 54.921875 63.453125 Z M 54.921875 37.96875 " clip-rule="nonzero"/></clipPath><clipPath id="e26201dca8"><path d="M 54.921875 39.421875 L 54.921875 61.976562 C 54.921875 62.78125 55.574219 63.429688 56.378906 63.429688 L 59.910156 63.429688 C 60.710938 63.429688 61.363281 62.78125 61.363281 61.976562 L 61.363281 39.421875 C 61.363281 38.617188 60.710938 37.96875 59.910156 37.96875 L 56.378906 37.96875 C 55.574219 37.96875 54.921875 38.617188 54.921875 39.421875 Z M 54.921875 39.421875 " clip-rule="nonzero"/></clipPath><clipPath id="a3fbaa81cf"><path d="M 0.921875 0.96875 L 7.390625 0.96875 L 7.390625 26.453125 L 0.921875 26.453125 Z M 0.921875 0.96875 " clip-rule="nonzero"/></clipPath><clipPath id="501f658911"><path d="M 0.921875 2.421875 L 0.921875 24.976562 C 0.921875 25.78125 1.574219 26.429688 2.378906 26.429688 L 5.910156 26.429688 C 6.710938 26.429688 7.363281 25.78125 7.363281 24.976562 L 7.363281 2.421875 C 7.363281 1.617188 6.710938 0.96875 5.910156 0.96875 L 2.378906 0.96875 C 1.574219 0.96875 0.921875 1.617188 0.921875 2.421875 Z M 0.921875 2.421875 " clip-rule="nonzero"/></clipPath><clipPath id="02a8dd39fc"><rect x="0" width="8" y="0" height="27"/></clipPath><clipPath id="f3f373a661"><path d="M 12.738281 33.222656 L 20.59375 33.222656 L 20.59375 86.273438 L 12.738281 86.273438 Z M 12.738281 33.222656 " clip-rule="nonzero"/></clipPath><clipPath id="2d03746673"><path d="M 14.238281 33.222656 L 19.097656 33.222656 C 19.496094 33.222656 19.875 33.378906 20.15625 33.660156 C 20.4375 33.941406 20.59375 34.324219 20.59375 34.71875 L 20.59375 84.761719 C 20.59375 85.160156 20.4375 85.539062 20.15625 85.820312 C 19.875 86.101562 19.496094 86.257812 19.097656 86.257812 L 14.238281 86.257812 C 13.839844 86.257812 13.457031 86.101562 13.179688 85.820312 C 12.898438 85.539062 12.738281 85.160156 12.738281 84.761719 L 12.738281 34.71875 C 12.738281 34.324219 12.898438 33.941406 13.179688 33.660156 C 13.457031 33.378906 13.839844 33.222656 14.238281 33.222656 Z M 14.238281 33.222656 " clip-rule="nonzero"/></clipPath><clipPath id="828a921700"><path d="M 0.738281 0.222656 L 8.59375 0.222656 L 8.59375 53.273438 L 0.738281 53.273438 Z M 0.738281 0.222656 " clip-rule="nonzero"/></clipPath><clipPath id="983f5ba56a"><path d="M 2.238281 0.222656 L 7.097656 0.222656 C 7.496094 0.222656 7.875 0.378906 8.15625 0.660156 C 8.4375 0.941406 8.59375 1.324219 8.59375 1.71875 L 8.59375 51.761719 C 8.59375 52.160156 8.4375 52.539062 8.15625 52.820312 C 7.875 53.101562 7.496094 53.257812 7.097656 53.257812 L 2.238281 53.257812 C 1.839844 53.257812 1.457031 53.101562 1.179688 52.820312 C 0.898438 52.539062 0.738281 52.160156 0.738281 51.761719 L 0.738281 1.71875 C 0.738281 1.324219 0.898438 0.941406 1.179688 0.660156 C 1.457031 0.378906 1.839844 0.222656 2.238281 0.222656 Z M 2.238281 0.222656 " clip-rule="nonzero"/></clipPath><clipPath id="7f0ba6214e"><rect x="0" width="9" y="0" height="54"/></clipPath><clipPath id="14f8863df7"><path d="M 23.539062 57.425781 L 30.867188 57.425781 L 30.867188 81.976562 L 23.539062 81.976562 Z M 23.539062 57.425781 " clip-rule="nonzero"/></clipPath><clipPath id="854a288f30"><path d="M 25.039062 57.425781 L 29.371094 57.425781 C 29.765625 57.425781 30.148438 57.582031 30.429688 57.863281 C 30.707031 58.144531 30.867188 58.523438 30.867188 58.921875 L 30.867188 80.453125 C 30.867188 80.851562 30.707031 81.230469 30.429688 81.511719 C 30.148438 81.792969 29.765625 81.949219 29.371094 81.949219 L 25.039062 81.949219 C 24.640625 81.949219 24.257812 81.792969 23.980469 81.511719 C 23.699219 81.230469 23.539062 80.851562 23.539062 80.453125 L 23.539062 58.921875 C 23.539062 58.523438 23.699219 58.144531 23.980469 57.863281 C 24.257812 57.582031 24.640625 57.425781 25.039062 57.425781 Z M 25.039062 57.425781 " clip-rule="nonzero"/></clipPath><clipPath id="96a1dc7953"><path d="M 0.539062 0.425781 L 7.867188 0.425781 L 7.867188 24.976562 L 0.539062 24.976562 Z M 0.539062 0.425781 " clip-rule="nonzero"/></clipPath><clipPath id="7fa9487e1a"><path d="M 2.039062 0.425781 L 6.371094 0.425781 C 6.765625 0.425781 7.148438 0.582031 7.429688 0.863281 C 7.707031 1.144531 7.867188 1.523438 7.867188 1.921875 L 7.867188 23.453125 C 7.867188 23.851562 7.707031 24.230469 7.429688 24.511719 C 7.148438 24.792969 6.765625 24.949219 6.371094 24.949219 L 2.039062 24.949219 C 1.640625 24.949219 1.257812 24.792969 0.980469 24.511719 C 0.699219 24.230469 0.539062 23.851562 0.539062 23.453125 L 0.539062 1.921875 C 0.539062 1.523438 0.699219 1.144531 0.980469 0.863281 C 1.257812 0.582031 1.640625 0.425781 2.039062 0.425781 Z M 2.039062 0.425781 " clip-rule="nonzero"/></clipPath><clipPath id="d290578494"><rect x="0" width="8" y="0" height="25"/></clipPath><clipPath id="1f74ace670"><path d="M 63.277344 75.78125 L 78.554688 75.78125 L 78.554688 81.949219 L 63.277344 81.949219 Z M 63.277344 75.78125 " clip-rule="nonzero"/></clipPath><clipPath id="505f105085"><path d="M 64.773438 75.78125 L 77.046875 75.78125 C 77.441406 75.78125 77.824219 75.941406 78.105469 76.222656 C 78.382812 76.5 78.542969 76.882812 78.542969 77.28125 L 78.542969 80.453125 C 78.542969 80.851562 78.382812 81.230469 78.105469 81.511719 C 77.824219 81.792969 77.441406 81.949219 77.046875 81.949219 L 64.773438 81.949219 C 64.378906 81.949219 63.996094 81.792969 63.714844 81.511719 C 63.4375 81.230469 63.277344 80.851562 63.277344 80.453125 L 63.277344 77.28125 C 63.277344 76.882812 63.4375 76.5 63.714844 76.222656 C 63.996094 75.941406 64.378906 75.78125 64.773438 75.78125 Z M 64.773438 75.78125 " clip-rule="nonzero"/></clipPath><clipPath id="d7fc911a22"><path d="M 0.277344 0.78125 L 15.554688 0.78125 L 15.554688 6.949219 L 0.277344 6.949219 Z M 0.277344 0.78125 " clip-rule="nonzero"/></clipPath><clipPath id="dcd067393f"><path d="M 1.773438 0.78125 L 14.046875 0.78125 C 14.441406 0.78125 14.824219 0.941406 15.105469 1.222656 C 15.382812 1.5 15.542969 1.882812 15.542969 2.28125 L 15.542969 5.453125 C 15.542969 5.851562 15.382812 6.230469 15.105469 6.511719 C 14.824219 6.792969 14.441406 6.949219 14.046875 6.949219 L 1.773438 6.949219 C 1.378906 6.949219 0.996094 6.792969 0.714844 6.511719 C 0.4375 6.230469 0.277344 5.851562 0.277344 5.453125 L 0.277344 2.28125 C 0.277344 1.882812 0.4375 1.5 0.714844 1.222656 C 0.996094 0.941406 1.378906 0.78125 1.773438 0.78125 Z M 1.773438 0.78125 " clip-rule="nonzero"/></clipPath><clipPath id="25d36c0d76"><rect x="0" width="16" y="0" height="7"/></clipPath></defs><g clip-path="url(#d4c6238f50)"><g clip-path="url(#688521f8d9)"><g transform="matrix(1, 0, 0, 1, 8, 39)"><g clip-path="url(#9048517d36)"><g clip-path="url(#7638b0c97e)"><g clip-path="url(#2976032199)"><path fill="#FFD83D" d="M 0.0585938 0.214844 L 25.132812 0.214844 L 25.132812 6.722656 L 0.0585938 6.722656 Z M 0.0585938 0.214844 " fill-opacity="1" fill-rule="nonzero"/></g></g></g></g></g></g><g clip-path="url(#c383cd55e6)"><g clip-path="url(#91376d2a55)"><g transform="matrix(1, 0, 0, 1, 22, 49)"><g clip-path="url(#d0a89c3795)"><g clip-path="url(#63cf4a4aab)"><g clip-path="url(#a8bb22d510)"><path fill="#FFD83D" d="M 0.851562 0.992188 L 9.398438 0.992188 L 9.398438 7.035156 L 0.851562 7.035156 Z M 0.851562 0.992188 " fill-opacity="1" fill-rule="nonzero"/></g></g></g></g></g></g><g clip-path="url(#755f37929e)"><g clip-path="url(#4814a85cbc)"><g transform="matrix(1, 0, 0, 1, 45, 33)"><g clip-path="url(#2fa60eca03)"><g clip-path="url(#705ff1d19d)"><g clip-path="url(#5bd7a88445)"><path fill="#FFD83D" d="M 0.496094 0.222656 L 7.585938 0.222656 L 7.585938 28.816406 L 0.496094 28.816406 Z M 0.496094 0.222656 " fill-opacity="1" fill-rule="nonzero"/></g></g></g></g></g></g><g clip-path="url(#8e995d25a9)"><g clip-path="url(#372c872c17)"><g transform="matrix(1, 0, 0, 1, 43, 64)"><g clip-path="url(#5635e36144)"><g clip-path="url(#15a64d3289)"><g clip-path="url(#bf069fe3a2)"><path fill="#FFD83D" d="M 0.289062 0.00390625 L 6.8125 0.00390625 L 6.8125 22.460938 L 0.289062 22.460938 Z M 0.289062 0.00390625 " fill-opacity="1" fill-rule="nonzero"/></g></g></g></g></g></g><g clip-path="url(#1ba31bb58f)"><g transform="matrix(1, 0, 0, 1, 54, 61)"><g clip-path="url(#865ad1e0db)"><g clip-path="url(#8f4f0a159a)"><path fill="#FFD83D" d="M 0.546875 0.132812 L 6.886719 0.132812 L 6.886719 25.46875 L 0.546875 25.46875 Z M 0.546875 0.132812 " fill-opacity="1" fill-rule="nonzero"/></g></g></g></g><g clip-path="url(#8612154dc7)"><g transform="matrix(1, 0, 0, 1, 48, 80)"><g clip-path="url(#3a74ac78d7)"><g clip-path="url(#641daa491e)"><path fill="#FFD83D" d="M 0.1875 0.261719 L 10.363281 0.261719 L 10.363281 6.453125 L 0.1875 6.453125 Z M 0.1875 0.261719 " fill-opacity="1" fill-rule="nonzero"/></g></g></g></g><g clip-path="url(#09d11c3757)"><g transform="matrix(1, 0, 0, 1, 46, 64)"><g clip-path="url(#ca2ae8f39f)"><g clip-path="url(#793051df3b)"><path fill="#FFD83D" d="M 0.550781 0.00390625 L 11.257812 0.00390625 L 11.257812 5.8125 L 0.550781 5.8125 Z M 0.550781 0.00390625 " fill-opacity="1" fill-rule="nonzero"/></g></g></g></g><g clip-path="url(#8ff926ac1b)"><g clip-path="url(#2289dd4f9a)"><g transform="matrix(1, 0, 0, 1, 54, 37)"><g clip-path="url(#49a0c936e1)"><g clip-path="url(#251edbda13)"><g clip-path="url(#996570dc4d)"><path fill="#FFD83D" d="M 0.546875 0.96875 L 6.886719 0.96875 L 6.886719 26.03125 L 0.546875 26.03125 Z M 0.546875 0.96875 " fill-opacity="1" fill-rule="nonzero"/></g></g></g></g></g></g><g clip-path="url(#16f32a918c)"><g clip-path="url(#2c82ffcd97)"><g transform="matrix(1, 0, 0, 1, 83, 56)"><g clip-path="url(#2461db2fd1)"><g clip-path="url(#e63774c983)"><g clip-path="url(#53e463d126)"><path fill="#FFD83D" d="M 0.898438 0.628906 L 7.554688 0.628906 L 7.554688 26.332031 L 0.898438 26.332031 Z M 0.898438 0.628906 " fill-opacity="1" fill-rule="nonzero"/></g></g></g></g></g></g><g clip-path="url(#aee3a89d9e)"><g clip-path="url(#6990e68ce4)"><g transform="matrix(1, 0, 0, 1, 84, 58)"><g clip-path="url(#f34d2e952d)"><g clip-path="url(#649e6486a8)"><g clip-path="url(#43f9c4b3d9)"><path fill="#FFD83D" d="M 0.539062 0.222656 L 18.035156 0.222656 L 18.035156 5.945312 L 0.539062 5.945312 Z M 0.539062 0.222656 " fill-opacity="1" fill-rule="nonzero"/></g></g></g></g></g></g><g clip-path="url(#d1bdfb9310)"><g transform="matrix(1, 0, 0, 1, 63, 58)"><g clip-path="url(#2d12344e5b)"><g clip-path="url(#b7ab8cb7e9)"><path fill="#FFD83D" d="M 0.277344 0.222656 L 6.882812 0.222656 L 6.882812 23.957031 L 0.277344 23.957031 Z M 0.277344 0.222656 " fill-opacity="1" fill-rule="nonzero"/></g></g></g></g><g clip-path="url(#87996ae07a)"><g clip-path="url(#f71568e5ae)"><g transform="matrix(1, 0, 0, 1, 75, 58)"><g clip-path="url(#7bbab09a20)"><g clip-path="url(#67a07a7dd7)"><g clip-path="url(#ae9d50459e)"><path fill="#FFD83D" d="M 0.273438 0.222656 L 6.6875 0.222656 L 6.6875 23.953125 L 0.273438 23.953125 Z M 0.273438 0.222656 " fill-opacity="1" fill-rule="nonzero"/></g></g></g></g></g></g><g clip-path="url(#354c22d722)"><g transform="matrix(1, 0, 0, 1, 66, 58)"><g clip-path="url(#ba8f919f3a)"><g clip-path="url(#6a03f4f996)"><path fill="#FFD83D" d="M 0.886719 0.222656 L 11.898438 0.222656 L 11.898438 6.460938 L 0.886719 6.460938 Z M 0.886719 0.222656 " fill-opacity="1" fill-rule="nonzero"/></g></g></g></g><g clip-path="url(#e549360779)"><g clip-path="url(#2652aee49f)"><g transform="matrix(1, 0, 0, 1, 93, 65)"><g clip-path="url(#ab70859016)"><g clip-path="url(#5af61b18a2)"><g clip-path="url(#53c9da8589)"><path fill="#FFD83D" d="M 0.289062 0.949219 L 6.613281 0.949219 L 6.613281 21.261719 L 0.289062 21.261719 Z M 0.289062 0.949219 " fill-opacity="1" fill-rule="nonzero"/></g></g></g></g></g></g><g clip-path="url(#c430b4a6e4)"><g clip-path="url(#99c0f6055d)"><g transform="matrix(1, 0, 0, 1, 105, 63)"><g clip-path="url(#25184d03fc)"><g clip-path="url(#bbee12aea1)"><g clip-path="url(#cf6c6f3aee)"><path fill="#FFD83D" d="M 0.171875 0.191406 L 6.941406 0.191406 L 6.941406 23.226562 L 0.171875 23.226562 Z M 0.171875 0.191406 " fill-opacity="1" fill-rule="nonzero"/></g></g></g></g></g></g><g clip-path="url(#15bf7ef621)"><g clip-path="url(#7463704766)"><g transform="matrix(1, 0, 0, 1, 96, 80)"><g clip-path="url(#a9275ac620)"><g clip-path="url(#1430b5e518)"><g clip-path="url(#b24d276614)"><path fill="#FFD83D" d="M 0.0351562 0.0859375 L 11.898438 0.0859375 L 11.898438 6.257812 L 0.0351562 6.257812 Z M 0.0351562 0.0859375 " fill-opacity="1" fill-rule="nonzero"/></g></g></g></g></g></g><g clip-path="url(#b928483710)"><g clip-path="url(#0fffe2867d)"><g transform="matrix(1, 0, 0, 1, 95, 65)"><g clip-path="url(#c6d08ee719)"><g clip-path="url(#b3b38e7609)"><g clip-path="url(#c865e9e0c7)"><path fill="#FFD83D" d="M 0.746094 0.957031 L 12.140625 0.957031 L 12.140625 6.222656 L 0.746094 6.222656 Z M 0.746094 0.957031 " fill-opacity="1" fill-rule="nonzero"/></g></g></g></g></g></g><g clip-path="url(#327fb44d95)"><g clip-path="url(#182588feb4)"><g transform="matrix(1, 0, 0, 1, 105, 44)"><g clip-path="url(#b8db09649e)"><g clip-path="url(#9aa71f5d5f)"><g clip-path="url(#c44fe63c8b)"><path fill="#FFD83D" d="M 0.171875 0.5 L 6.941406 0.5 L 6.941406 23.53125 L 0.171875 23.53125 Z M 0.171875 0.5 " fill-opacity="1" fill-rule="nonzero"/></g></g></g></g></g></g><g clip-path="url(#bb4ca5dc58)"><g clip-path="url(#354fe5cff6)"><g transform="matrix(1, 0, 0, 1, 33, 46)"><g clip-path="url(#560ee6b174)"><g clip-path="url(#0e44302465)"><g clip-path="url(#04fd96a0f4)"><path fill="#FFD83D" d="M 0.8125 0.285156 L 7.90625 0.285156 L 7.90625 31.316406 L 0.8125 31.316406 Z M 0.8125 0.285156 " fill-opacity="1" fill-rule="nonzero"/></g></g></g></g></g></g><g clip-path="url(#6ce932f17c)"><g clip-path="url(#568acb1fd6)"><g clip-path="url(#ad609a91a5)"><g transform="matrix(1, 0, 0, 1, 35, 46)"><g clip-path="url(#b9ca5cfa9e)"><g clip-path="url(#1008bfd5b1)"><g clip-path="url(#1d3ccd6eed)"><g clip-path="url(#06806f8a71)"><path fill="#FFD83D" d="M 0.371094 3.4375 L 4.632812 -0.269531 L 15.789062 12.539062 L 11.527344 16.25 Z M 0.371094 3.4375 " fill-opacity="1" fill-rule="nonzero"/></g></g></g></g></g></g></g></g><g clip-path="url(#046f9a9115)"><g transform="matrix(1, 0, 0, 1, 55, 61)"><g clip-path="url(#eb246f8995)"><g clip-path="url(#be9b5d24c0)"><path fill="#FFD83D" d="M 0.0273438 0.136719 L 6.367188 0.136719 L 6.367188 25.476562 L 0.0273438 25.476562 Z M 0.0273438 0.136719 " fill-opacity="1" fill-rule="nonzero"/></g></g></g></g><g clip-path="url(#09b251fa12)"><g clip-path="url(#e26201dca8)"><g transform="matrix(1, 0, 0, 1, 54, 37)"><g clip-path="url(#02a8dd39fc)"><g clip-path="url(#a3fbaa81cf)"><g clip-path="url(#501f658911)"><path fill="#FFD83D" d="M 0.921875 0.96875 L 7.363281 0.96875 L 7.363281 26.425781 L 0.921875 26.425781 Z M 0.921875 0.96875 " fill-opacity="1" fill-rule="nonzero"/></g></g></g></g></g></g><g clip-path="url(#f3f373a661)"><g clip-path="url(#2d03746673)"><g transform="matrix(1, 0, 0, 1, 12, 33)"><g clip-path="url(#7f0ba6214e)"><g clip-path="url(#828a921700)"><g clip-path="url(#983f5ba56a)"><path fill="#FFD83D" d="M 0.738281 0.222656 L 8.59375 0.222656 L 8.59375 53.273438 L 0.738281 53.273438 Z M 0.738281 0.222656 " fill-opacity="1" fill-rule="nonzero"/></g></g></g></g></g></g><g clip-path="url(#14f8863df7)"><g clip-path="url(#854a288f30)"><g transform="matrix(1, 0, 0, 1, 23, 57)"><g clip-path="url(#d290578494)"><g clip-path="url(#96a1dc7953)"><g clip-path="url(#7fa9487e1a)"><path fill="#FFD83D" d="M 0.539062 0.425781 L 7.867188 0.425781 L 7.867188 24.949219 L 0.539062 24.949219 Z M 0.539062 0.425781 " fill-opacity="1" fill-rule="nonzero"/></g></g></g></g></g></g><g clip-path="url(#1f74ace670)"><g clip-path="url(#505f105085)"><g transform="matrix(1, 0, 0, 1, 63, 75)"><g clip-path="url(#25d36c0d76)"><g clip-path="url(#d7fc911a22)"><g clip-path="url(#dcd067393f)"><path fill="#FFD83D" d="M 0.277344 0.78125 L 15.53125 0.78125 L 15.53125 6.949219 L 0.277344 6.949219 Z M 0.277344 0.78125 " fill-opacity="1" fill-rule="nonzero"/></g></g></g></g></g></g></svg>
